<svg id="图层_1" data-name="图层 1" xmlns="http://www.w3.org/2000/svg" xmlns:xlink="http://www.w3.org/1999/xlink" viewBox="0 0 47.12 45.89"><defs><style>.cls-1{mask:url(#mask);}.cls-2{mix-blend-mode:multiply;fill:url(#linear-gradient);}.cls-3{fill:#72b4dd;}.cls-4{fill:#9acaed;}.cls-5{mask:url(#mask-2);}.cls-6{fill:url(#linear-gradient-2);}.cls-7{filter:url(#luminosity-noclip-2);}.cls-8{filter:url(#luminosity-noclip);}</style><filter id="luminosity-noclip" x="286.59" y="-8613" width="34.35" height="32766" filterUnits="userSpaceOnUse" color-interpolation-filters="sRGB"><feFlood flood-color="#fff" result="bg"/><feBlend in="SourceGraphic" in2="bg"/></filter><mask id="mask" x="286.59" y="-8613" width="34.35" height="32766" maskUnits="userSpaceOnUse"><g class="cls-8"/></mask><linearGradient id="linear-gradient" x1="303.76" y1="411.14" x2="303.76" y2="388.77" gradientUnits="userSpaceOnUse"><stop offset="0"/><stop offset="0.44" stop-color="#181818"/><stop offset="1" stop-color="#333"/></linearGradient><filter id="luminosity-noclip-2" x="286.59" y="388.77" width="34.35" height="22.37" filterUnits="userSpaceOnUse" color-interpolation-filters="sRGB"><feFlood flood-color="#fff" result="bg"/><feBlend in="SourceGraphic" in2="bg"/></filter><mask id="mask-2" x="6.95" y="0" width="34.35" height="22.37" maskUnits="userSpaceOnUse"><g class="cls-7"><g transform="translate(-279.64 -388.77)"><g class="cls-1"><polygon class="cls-2" points="320.93 388.77 310.09 388.77 310.09 405.91 297.43 405.91 297.43 388.77 286.59 388.77 286.59 411.14 320.93 411.14 320.93 388.77"/></g></g></g></mask><linearGradient id="linear-gradient-2" x1="24.12" y1="22.37" x2="24.12" gradientUnits="userSpaceOnUse"><stop offset="0" stop-color="#f7f8f8"/><stop offset="1" stop-color="#efefef"/></linearGradient></defs><title>H</title><polygon class="cls-3" points="41.26 0 30.42 0 30.42 17.14 17.76 17.14 17.76 0 6.92 0 6.92 22.37 41.26 22.37 41.26 0"/><path class="cls-4" d="M297.72,429.44h-3.83a1.35,1.35,0,0,1,0-2.62h2.8a1.34,1.34,0,0,0,0-2.61H284.34a1.34,1.34,0,0,0,0,2.61h2.06a1.35,1.35,0,0,1,0,2.62h-1a1.34,1.34,0,0,0,0,2.61h12.35a1.34,1.34,0,0,0,0-2.61Z" transform="translate(-279.64 -388.77)"/><path class="cls-4" d="M325.73,421.59H309.08a1.35,1.35,0,0,0,0,2.62h-1.49a1.34,1.34,0,0,0,0,2.61h3.83a1.35,1.35,0,0,0,0,2.62h11.07a1.35,1.35,0,0,0,0-2.62h-2.55a1.34,1.34,0,0,1,0-2.61h5.79a1.35,1.35,0,0,0,0-2.62Z" transform="translate(-279.64 -388.77)"/><path class="cls-4" d="M320.6,432.05H309.77a1.34,1.34,0,0,0,0,2.61H320.6a1.34,1.34,0,0,0,0-2.61Z" transform="translate(-279.64 -388.77)"/><path class="cls-4" d="M285.52,420.29a1.19,1.19,0,0,0,1,1.3h10.83a1.34,1.34,0,0,0,0-2.61H295.6a1.35,1.35,0,0,1,0-2.62h13.14a1.35,1.35,0,0,0,0,2.62h14.93a1.35,1.35,0,0,0,0-2.62h-2.24a1.34,1.34,0,0,1,0-2.61h1a1.34,1.34,0,0,0,0-2.61H282.7a1.34,1.34,0,0,0,0,2.61h3.86a1.34,1.34,0,0,1,0,2.61h-5.89a1.35,1.35,0,0,0,0,2.62h5.89A1.2,1.2,0,0,0,285.52,420.29Z" transform="translate(-279.64 -388.77)"/><g class="cls-5"><polygon class="cls-6" points="41.3 0 30.45 0 30.45 17.14 17.8 17.14 17.8 0 6.95 0 6.95 22.37 41.3 22.37 41.3 0"/></g></svg>